<mxfile host="app.diagrams.net" modified="2023-10-18T11:44:02.677Z" agent="Mozilla/5.0 (Macintosh; Intel Mac OS X 10_15_7) AppleWebKit/537.36 (KHTML, like Gecko) Chrome/105.0.0.0 Safari/537.36" etag="9irqm8_kvxYS4efZtBD3" version="22.0.4" type="github">
  <diagram name="第 1 页" id="NlN-oaV5e4OJ7JgvH1-I">
    <mxGraphModel dx="1434" dy="739" grid="1" gridSize="10" guides="1" tooltips="1" connect="1" arrows="1" fold="1" page="1" pageScale="1" pageWidth="827" pageHeight="1169" math="0" shadow="0">
      <root>
        <mxCell id="0" />
        <mxCell id="1" parent="0" />
        <mxCell id="zJNFZbpcUzYXw6sJoN---1" value="点击保存" style="rounded=0;whiteSpace=wrap;html=1;fillColor=#b1ddf0;strokeColor=#10739e;" vertex="1" parent="1">
          <mxGeometry x="110" y="160" width="90" height="40" as="geometry" />
        </mxCell>
        <mxCell id="zJNFZbpcUzYXw6sJoN---2" value="" style="endArrow=classic;html=1;rounded=0;exitX=0.5;exitY=1;exitDx=0;exitDy=0;endFill=1;entryX=0;entryY=0.5;entryDx=0;entryDy=0;strokeWidth=3;" edge="1" parent="1" source="zJNFZbpcUzYXw6sJoN---1" target="zJNFZbpcUzYXw6sJoN---3">
          <mxGeometry width="50" height="50" relative="1" as="geometry">
            <mxPoint x="150" y="230" as="sourcePoint" />
            <mxPoint x="240" y="240" as="targetPoint" />
            <Array as="points">
              <mxPoint x="155" y="240" />
            </Array>
          </mxGeometry>
        </mxCell>
        <mxCell id="zJNFZbpcUzYXw6sJoN---3" value="被动维护" style="rounded=0;whiteSpace=wrap;html=1;fontSize=18;fillColor=#bac8d3;strokeColor=#23445d;" vertex="1" parent="1">
          <mxGeometry x="220" y="220" width="270" height="40" as="geometry" />
        </mxCell>
        <mxCell id="zJNFZbpcUzYXw6sJoN---4" value="数据检查" style="rounded=0;whiteSpace=wrap;html=1;fontSize=18;fillColor=#bac8d3;strokeColor=#23445d;" vertex="1" parent="1">
          <mxGeometry x="504" y="220" width="86" height="40" as="geometry" />
        </mxCell>
        <mxCell id="zJNFZbpcUzYXw6sJoN---5" value="保存请求" style="rounded=0;whiteSpace=wrap;html=1;fontSize=18;fillColor=#bac8d3;strokeColor=#23445d;" vertex="1" parent="1">
          <mxGeometry x="610" y="220" width="180" height="40" as="geometry" />
        </mxCell>
        <mxCell id="zJNFZbpcUzYXw6sJoN---6" value="清除原数据" style="rounded=0;whiteSpace=wrap;html=1;fontSize=18;fillColor=#bac8d3;strokeColor=#23445d;" vertex="1" parent="1">
          <mxGeometry x="827" y="220" width="183" height="40" as="geometry" />
        </mxCell>
        <mxCell id="zJNFZbpcUzYXw6sJoN---7" value="" style="endArrow=open;dashed=1;html=1;rounded=0;startArrow=none;startFill=0;endFill=0;strokeColor=#CC0000;strokeWidth=5;" edge="1" parent="1" source="zJNFZbpcUzYXw6sJoN---8">
          <mxGeometry width="50" height="50" relative="1" as="geometry">
            <mxPoint x="70" y="410" as="sourcePoint" />
            <mxPoint x="1420" y="410" as="targetPoint" />
          </mxGeometry>
        </mxCell>
        <mxCell id="zJNFZbpcUzYXw6sJoN---9" value="" style="endArrow=none;dashed=1;html=1;rounded=0;" edge="1" parent="1" target="zJNFZbpcUzYXw6sJoN---8">
          <mxGeometry width="50" height="50" relative="1" as="geometry">
            <mxPoint x="57" y="410" as="sourcePoint" />
            <mxPoint x="1017" y="410" as="targetPoint" />
          </mxGeometry>
        </mxCell>
        <mxCell id="zJNFZbpcUzYXw6sJoN---8" value="主流程" style="text;html=1;strokeColor=none;fillColor=none;align=center;verticalAlign=middle;whiteSpace=wrap;rounded=0;spacing=5;fontSize=18;" vertex="1" parent="1">
          <mxGeometry x="57" y="390" width="80" height="40" as="geometry" />
        </mxCell>
        <mxCell id="zJNFZbpcUzYXw6sJoN---10" value="" style="shape=offPageConnector;whiteSpace=wrap;html=1;direction=south;rotation=-180;fillColor=#f8cecc;strokeColor=#b85450;gradientColor=#ea6b66;" vertex="1" parent="1">
          <mxGeometry x="240" y="380" width="120" height="60" as="geometry" />
        </mxCell>
        <mxCell id="zJNFZbpcUzYXw6sJoN---13" value="初始化&lt;br&gt;被动维护框架" style="text;html=1;align=center;verticalAlign=middle;whiteSpace=wrap;rounded=0;" vertex="1" parent="1">
          <mxGeometry x="240" y="395" width="90" height="30" as="geometry" />
        </mxCell>
        <mxCell id="zJNFZbpcUzYXw6sJoN---14" value="" style="shape=offPageConnector;whiteSpace=wrap;html=1;direction=south;rotation=-180;fillColor=#f8cecc;strokeColor=#b85450;gradientColor=#ea6b66;" vertex="1" parent="1">
          <mxGeometry x="360" y="380" width="120" height="60" as="geometry" />
        </mxCell>
        <mxCell id="zJNFZbpcUzYXw6sJoN---15" value="执行&lt;br&gt;被动维护" style="text;html=1;align=center;verticalAlign=middle;whiteSpace=wrap;rounded=0;" vertex="1" parent="1">
          <mxGeometry x="360" y="395" width="90" height="30" as="geometry" />
        </mxCell>
        <mxCell id="zJNFZbpcUzYXw6sJoN---16" value="" style="shape=offPageConnector;whiteSpace=wrap;html=1;direction=south;rotation=-180;fillColor=#f8cecc;strokeColor=#b85450;gradientColor=#ea6b66;" vertex="1" parent="1">
          <mxGeometry x="514" y="380" width="70" height="60" as="geometry" />
        </mxCell>
        <mxCell id="zJNFZbpcUzYXw6sJoN---17" value="范围检查" style="text;html=1;align=center;verticalAlign=middle;whiteSpace=wrap;rounded=0;" vertex="1" parent="1">
          <mxGeometry x="524" y="395" width="50" height="30" as="geometry" />
        </mxCell>
        <mxCell id="zJNFZbpcUzYXw6sJoN---18" value="" style="shape=offPageConnector;whiteSpace=wrap;html=1;direction=south;rotation=-180;fillColor=#f8cecc;strokeColor=#b85450;gradientColor=#ea6b66;" vertex="1" parent="1">
          <mxGeometry x="618" y="380" width="80" height="60" as="geometry" />
        </mxCell>
        <mxCell id="zJNFZbpcUzYXw6sJoN---19" value="create&lt;br&gt;请求" style="text;html=1;align=center;verticalAlign=middle;whiteSpace=wrap;rounded=0;" vertex="1" parent="1">
          <mxGeometry x="618" y="392.5" width="60" height="35" as="geometry" />
        </mxCell>
        <mxCell id="zJNFZbpcUzYXw6sJoN---20" value="" style="shape=offPageConnector;whiteSpace=wrap;html=1;direction=south;rotation=-180;fillColor=#f8cecc;strokeColor=#b85450;gradientColor=#ea6b66;" vertex="1" parent="1">
          <mxGeometry x="700" y="380" width="80" height="60" as="geometry" />
        </mxCell>
        <mxCell id="zJNFZbpcUzYXw6sJoN---21" value="upload&lt;br&gt;请求" style="text;html=1;align=center;verticalAlign=middle;whiteSpace=wrap;rounded=0;" vertex="1" parent="1">
          <mxGeometry x="700" y="392.5" width="60" height="35" as="geometry" />
        </mxCell>
        <mxCell id="zJNFZbpcUzYXw6sJoN---22" value="" style="shape=offPageConnector;whiteSpace=wrap;html=1;direction=south;rotation=-180;fillColor=#f8cecc;strokeColor=#b85450;gradientColor=#ea6b66;" vertex="1" parent="1">
          <mxGeometry x="840" y="380" width="80" height="60" as="geometry" />
        </mxCell>
        <mxCell id="zJNFZbpcUzYXw6sJoN---23" value="清空&lt;br&gt;历史记录" style="text;html=1;align=center;verticalAlign=middle;whiteSpace=wrap;rounded=0;" vertex="1" parent="1">
          <mxGeometry x="840" y="392.5" width="60" height="35" as="geometry" />
        </mxCell>
        <mxCell id="zJNFZbpcUzYXw6sJoN---24" value="" style="shape=offPageConnector;whiteSpace=wrap;html=1;direction=south;rotation=-180;fillColor=#f8cecc;strokeColor=#b85450;gradientColor=#ea6b66;" vertex="1" parent="1">
          <mxGeometry x="920" y="380" width="80" height="60" as="geometry" />
        </mxCell>
        <mxCell id="zJNFZbpcUzYXw6sJoN---25" value="清空&lt;br&gt;加载器" style="text;html=1;align=center;verticalAlign=middle;whiteSpace=wrap;rounded=0;" vertex="1" parent="1">
          <mxGeometry x="920" y="392.5" width="60" height="35" as="geometry" />
        </mxCell>
        <mxCell id="zJNFZbpcUzYXw6sJoN---26" value="数据重新拉取" style="rounded=0;whiteSpace=wrap;html=1;fontSize=18;fillColor=#bac8d3;strokeColor=#23445d;" vertex="1" parent="1">
          <mxGeometry x="1040" y="220" width="330" height="40" as="geometry" />
        </mxCell>
        <mxCell id="zJNFZbpcUzYXw6sJoN---27" value="" style="shape=offPageConnector;whiteSpace=wrap;html=1;direction=south;rotation=-180;fillColor=#f8cecc;strokeColor=#b85450;gradientColor=#ea6b66;" vertex="1" parent="1">
          <mxGeometry x="1060" y="380" width="80" height="60" as="geometry" />
        </mxCell>
        <mxCell id="zJNFZbpcUzYXw6sJoN---28" value="加载地图数据" style="text;html=1;align=center;verticalAlign=middle;whiteSpace=wrap;rounded=0;" vertex="1" parent="1">
          <mxGeometry x="1060" y="392.5" width="60" height="35" as="geometry" />
        </mxCell>
        <mxCell id="zJNFZbpcUzYXw6sJoN---29" value="" style="shape=offPageConnector;whiteSpace=wrap;html=1;direction=south;rotation=-180;fillColor=#fad7ac;strokeColor=#b46504;" vertex="1" parent="1">
          <mxGeometry x="1060" y="473" width="80" height="60" as="geometry" />
        </mxCell>
        <mxCell id="zJNFZbpcUzYXw6sJoN---30" value="bbox1" style="text;html=1;strokeColor=none;fillColor=none;align=center;verticalAlign=middle;whiteSpace=wrap;rounded=0;" vertex="1" parent="1">
          <mxGeometry x="1060" y="485.5" width="60" height="35" as="geometry" />
        </mxCell>
        <mxCell id="zJNFZbpcUzYXw6sJoN---31" value="" style="shape=offPageConnector;whiteSpace=wrap;html=1;direction=south;rotation=-180;fillColor=#f8cecc;strokeColor=#b85450;gradientColor=#ea6b66;" vertex="1" parent="1">
          <mxGeometry x="1161" y="380" width="83" height="60" as="geometry" />
        </mxCell>
        <mxCell id="zJNFZbpcUzYXw6sJoN---32" value="处理新数据" style="text;html=1;align=center;verticalAlign=middle;whiteSpace=wrap;rounded=0;" vertex="1" parent="1">
          <mxGeometry x="1120" y="392.5" width="149" height="35" as="geometry" />
        </mxCell>
        <mxCell id="zJNFZbpcUzYXw6sJoN---33" value="" style="shape=offPageConnector;whiteSpace=wrap;html=1;direction=south;rotation=-180;fillColor=#f8cecc;strokeColor=#b85450;gradientColor=#ea6b66;" vertex="1" parent="1">
          <mxGeometry x="1266.5" y="380" width="91" height="60" as="geometry" />
        </mxCell>
        <mxCell id="zJNFZbpcUzYXw6sJoN---34" value="地图数据更新" style="text;html=1;align=center;verticalAlign=middle;whiteSpace=wrap;rounded=0;" vertex="1" parent="1">
          <mxGeometry x="1232" y="392.5" width="149" height="35" as="geometry" />
        </mxCell>
        <mxCell id="zJNFZbpcUzYXw6sJoN---36" value="" style="shape=offPageConnector;whiteSpace=wrap;html=1;direction=south;rotation=-180;fillColor=#fad7ac;strokeColor=#b46504;" vertex="1" parent="1">
          <mxGeometry x="1060" y="560" width="80" height="60" as="geometry" />
        </mxCell>
        <mxCell id="zJNFZbpcUzYXw6sJoN---37" value="bbox2" style="text;html=1;strokeColor=none;fillColor=none;align=center;verticalAlign=middle;whiteSpace=wrap;rounded=0;" vertex="1" parent="1">
          <mxGeometry x="1060" y="572.5" width="60" height="35" as="geometry" />
        </mxCell>
        <mxCell id="zJNFZbpcUzYXw6sJoN---38" value="" style="shape=offPageConnector;whiteSpace=wrap;html=1;direction=south;rotation=-180;fillColor=#fad7ac;strokeColor=#b46504;" vertex="1" parent="1">
          <mxGeometry x="1161" y="460" width="80" height="60" as="geometry" />
        </mxCell>
        <mxCell id="zJNFZbpcUzYXw6sJoN---39" value="create ety" style="text;html=1;fillColor=none;align=center;verticalAlign=middle;whiteSpace=wrap;rounded=0;" vertex="1" parent="1">
          <mxGeometry x="1161" y="472.5" width="60" height="35" as="geometry" />
        </mxCell>
        <mxCell id="zJNFZbpcUzYXw6sJoN---40" value="" style="shape=offPageConnector;whiteSpace=wrap;html=1;direction=south;rotation=-180;fillColor=#fad7ac;strokeColor=#b46504;" vertex="1" parent="1">
          <mxGeometry x="1161" y="540" width="80" height="60" as="geometry" />
        </mxCell>
        <mxCell id="zJNFZbpcUzYXw6sJoN---41" value="存入历史记录" style="text;html=1;strokeColor=none;fillColor=none;align=center;verticalAlign=middle;whiteSpace=wrap;rounded=0;" vertex="1" parent="1">
          <mxGeometry x="1161" y="552.5" width="60" height="35" as="geometry" />
        </mxCell>
        <mxCell id="zJNFZbpcUzYXw6sJoN---42" value="" style="shape=offPageConnector;whiteSpace=wrap;html=1;direction=south;rotation=-180;fillColor=#fad7ac;strokeColor=#b46504;" vertex="1" parent="1">
          <mxGeometry x="1161" y="620" width="80" height="60" as="geometry" />
        </mxCell>
        <mxCell id="zJNFZbpcUzYXw6sJoN---43" value="计算geojson" style="text;html=1;strokeColor=none;fillColor=none;align=center;verticalAlign=middle;whiteSpace=wrap;rounded=0;" vertex="1" parent="1">
          <mxGeometry x="1161" y="632.5" width="60" height="35" as="geometry" />
        </mxCell>
        <mxCell id="zJNFZbpcUzYXw6sJoN---44" value="" style="shape=offPageConnector;whiteSpace=wrap;html=1;direction=south;rotation=-180;fillColor=#fad7ac;strokeColor=#b46504;" vertex="1" parent="1">
          <mxGeometry x="1266.5" y="460" width="80" height="60" as="geometry" />
        </mxCell>
        <mxCell id="zJNFZbpcUzYXw6sJoN---45" value="ui 拉取&lt;br&gt;geojson" style="text;html=1;strokeColor=none;fillColor=none;align=center;verticalAlign=middle;whiteSpace=wrap;rounded=0;" vertex="1" parent="1">
          <mxGeometry x="1266.5" y="472.5" width="60" height="35" as="geometry" />
        </mxCell>
        <mxCell id="zJNFZbpcUzYXw6sJoN---46" value="" style="shape=offPageConnector;whiteSpace=wrap;html=1;direction=south;rotation=-180;fillColor=#fad7ac;strokeColor=#b46504;" vertex="1" parent="1">
          <mxGeometry x="1266.5" y="540" width="80" height="60" as="geometry" />
        </mxCell>
        <mxCell id="zJNFZbpcUzYXw6sJoN---47" value="mapbox&lt;br&gt;计算" style="text;html=1;strokeColor=none;fillColor=none;align=center;verticalAlign=middle;whiteSpace=wrap;rounded=0;" vertex="1" parent="1">
          <mxGeometry x="1266.5" y="552.5" width="60" height="35" as="geometry" />
        </mxCell>
        <mxCell id="zJNFZbpcUzYXw6sJoN---50" value="" style="endArrow=none;dashed=1;html=1;rounded=0;" edge="1" parent="1">
          <mxGeometry width="50" height="50" relative="1" as="geometry">
            <mxPoint x="210" y="640" as="sourcePoint" />
            <mxPoint x="210" y="270" as="targetPoint" />
          </mxGeometry>
        </mxCell>
        <mxCell id="zJNFZbpcUzYXw6sJoN---51" value="2206ms" style="text;html=1;strokeColor=none;fillColor=none;align=center;verticalAlign=middle;whiteSpace=wrap;rounded=0;" vertex="1" parent="1">
          <mxGeometry x="180" y="660" width="60" height="30" as="geometry" />
        </mxCell>
        <mxCell id="zJNFZbpcUzYXw6sJoN---52" value="" style="endArrow=none;dashed=1;html=1;rounded=0;entryX=1;entryY=0;entryDx=0;entryDy=0;" edge="1" parent="1">
          <mxGeometry width="50" height="50" relative="1" as="geometry">
            <mxPoint x="496.5" y="639" as="sourcePoint" />
            <mxPoint x="496.5" y="219" as="targetPoint" />
          </mxGeometry>
        </mxCell>
        <mxCell id="zJNFZbpcUzYXw6sJoN---53" value="&lt;span style=&quot;color: rgb(0, 0, 0); font-family: Helvetica; font-size: 12px; font-style: normal; font-variant-ligatures: normal; font-variant-caps: normal; font-weight: 400; letter-spacing: normal; orphans: 2; text-align: center; text-indent: 0px; text-transform: none; widows: 2; word-spacing: 0px; -webkit-text-stroke-width: 0px; background-color: rgb(251, 251, 251); text-decoration-thickness: initial; text-decoration-style: initial; text-decoration-color: initial; float: none; display: inline !important;&quot;&gt;2238ms&lt;/span&gt;" style="text;whiteSpace=wrap;html=1;" vertex="1" parent="1">
          <mxGeometry x="470" y="660" width="80" height="40" as="geometry" />
        </mxCell>
        <mxCell id="zJNFZbpcUzYXw6sJoN---54" value="" style="endArrow=none;dashed=1;html=1;rounded=0;" edge="1" parent="1">
          <mxGeometry width="50" height="50" relative="1" as="geometry">
            <mxPoint x="600" y="640" as="sourcePoint" />
            <mxPoint x="600" y="220" as="targetPoint" />
          </mxGeometry>
        </mxCell>
        <mxCell id="zJNFZbpcUzYXw6sJoN---55" value="" style="endArrow=none;dashed=1;html=1;rounded=0;" edge="1" parent="1">
          <mxGeometry width="50" height="50" relative="1" as="geometry">
            <mxPoint x="810" y="640" as="sourcePoint" />
            <mxPoint x="810" y="220" as="targetPoint" />
          </mxGeometry>
        </mxCell>
        <mxCell id="zJNFZbpcUzYXw6sJoN---56" value="" style="endArrow=none;dashed=1;html=1;rounded=0;" edge="1" parent="1">
          <mxGeometry width="50" height="50" relative="1" as="geometry">
            <mxPoint x="1024" y="640" as="sourcePoint" />
            <mxPoint x="1024" y="220" as="targetPoint" />
          </mxGeometry>
        </mxCell>
        <mxCell id="zJNFZbpcUzYXw6sJoN---57" value="&lt;span style=&quot;color: rgb(0, 0, 0); font-family: Helvetica; font-size: 12px; font-style: normal; font-variant-ligatures: normal; font-variant-caps: normal; font-weight: 400; letter-spacing: normal; orphans: 2; text-align: center; text-indent: 0px; text-transform: none; widows: 2; word-spacing: 0px; -webkit-text-stroke-width: 0px; background-color: rgb(251, 251, 251); text-decoration-thickness: initial; text-decoration-style: initial; text-decoration-color: initial; float: none; display: inline !important;&quot;&gt;2241ms&lt;/span&gt;" style="text;whiteSpace=wrap;html=1;" vertex="1" parent="1">
          <mxGeometry x="584" y="660" width="80" height="40" as="geometry" />
        </mxCell>
        <mxCell id="zJNFZbpcUzYXw6sJoN---58" value="&lt;span style=&quot;color: rgb(0, 0, 0); font-family: Helvetica; font-size: 12px; font-style: normal; font-variant-ligatures: normal; font-variant-caps: normal; font-weight: 400; letter-spacing: normal; orphans: 2; text-align: center; text-indent: 0px; text-transform: none; widows: 2; word-spacing: 0px; -webkit-text-stroke-width: 0px; background-color: rgb(251, 251, 251); text-decoration-thickness: initial; text-decoration-style: initial; text-decoration-color: initial; float: none; display: inline !important;&quot;&gt;2782ms&lt;/span&gt;" style="text;whiteSpace=wrap;html=1;" vertex="1" parent="1">
          <mxGeometry x="790" y="660" width="80" height="40" as="geometry" />
        </mxCell>
        <mxCell id="zJNFZbpcUzYXw6sJoN---59" value="&lt;span style=&quot;color: rgb(0, 0, 0); font-family: Helvetica; font-size: 12px; font-style: normal; font-variant-ligatures: normal; font-variant-caps: normal; font-weight: 400; letter-spacing: normal; orphans: 2; text-align: center; text-indent: 0px; text-transform: none; widows: 2; word-spacing: 0px; -webkit-text-stroke-width: 0px; background-color: rgb(251, 251, 251); text-decoration-thickness: initial; text-decoration-style: initial; text-decoration-color: initial; float: none; display: inline !important;&quot;&gt;2786ms&lt;/span&gt;" style="text;whiteSpace=wrap;html=1;" vertex="1" parent="1">
          <mxGeometry x="1010" y="660" width="80" height="40" as="geometry" />
        </mxCell>
        <mxCell id="zJNFZbpcUzYXw6sJoN---60" value="" style="endArrow=none;dashed=1;html=1;rounded=0;" edge="1" parent="1">
          <mxGeometry width="50" height="50" relative="1" as="geometry">
            <mxPoint x="1150" y="680" as="sourcePoint" />
            <mxPoint x="1150" y="260" as="targetPoint" />
          </mxGeometry>
        </mxCell>
        <mxCell id="zJNFZbpcUzYXw6sJoN---61" value="" style="endArrow=none;dashed=1;html=1;rounded=0;" edge="1" parent="1">
          <mxGeometry width="50" height="50" relative="1" as="geometry">
            <mxPoint x="1250" y="680" as="sourcePoint" />
            <mxPoint x="1250" y="260" as="targetPoint" />
          </mxGeometry>
        </mxCell>
        <mxCell id="zJNFZbpcUzYXw6sJoN---62" value="" style="endArrow=none;dashed=1;html=1;rounded=0;" edge="1" parent="1">
          <mxGeometry width="50" height="50" relative="1" as="geometry">
            <mxPoint x="1380" y="640" as="sourcePoint" />
            <mxPoint x="1380" y="220" as="targetPoint" />
          </mxGeometry>
        </mxCell>
        <mxCell id="zJNFZbpcUzYXw6sJoN---63" value="&lt;span style=&quot;color: rgb(0, 0, 0); font-family: Helvetica; font-size: 12px; font-style: normal; font-variant-ligatures: normal; font-variant-caps: normal; font-weight: 400; letter-spacing: normal; orphans: 2; text-align: center; text-indent: 0px; text-transform: none; widows: 2; word-spacing: 0px; -webkit-text-stroke-width: 0px; background-color: rgb(251, 251, 251); text-decoration-thickness: initial; text-decoration-style: initial; text-decoration-color: initial; float: none; display: inline !important;&quot;&gt;3190ms&lt;/span&gt;" style="text;whiteSpace=wrap;html=1;" vertex="1" parent="1">
          <mxGeometry x="1130" y="690" width="80" height="40" as="geometry" />
        </mxCell>
        <mxCell id="zJNFZbpcUzYXw6sJoN---64" value="&lt;span style=&quot;color: rgb(0, 0, 0); font-family: Helvetica; font-size: 12px; font-style: normal; font-variant-ligatures: normal; font-variant-caps: normal; font-weight: 400; letter-spacing: normal; orphans: 2; text-align: center; text-indent: 0px; text-transform: none; widows: 2; word-spacing: 0px; -webkit-text-stroke-width: 0px; background-color: rgb(251, 251, 251); text-decoration-thickness: initial; text-decoration-style: initial; text-decoration-color: initial; float: none; display: inline !important;&quot;&gt;5755ms&lt;/span&gt;" style="text;whiteSpace=wrap;html=1;" vertex="1" parent="1">
          <mxGeometry x="1232" y="690" width="80" height="40" as="geometry" />
        </mxCell>
        <mxCell id="zJNFZbpcUzYXw6sJoN---65" value="&lt;span style=&quot;color: rgb(0, 0, 0); font-family: Helvetica; font-size: 12px; font-style: normal; font-variant-ligatures: normal; font-variant-caps: normal; font-weight: 400; letter-spacing: normal; orphans: 2; text-align: center; text-indent: 0px; text-transform: none; widows: 2; word-spacing: 0px; -webkit-text-stroke-width: 0px; background-color: rgb(251, 251, 251); text-decoration-thickness: initial; text-decoration-style: initial; text-decoration-color: initial; float: none; display: inline !important;&quot;&gt;7519ms&lt;/span&gt;" style="text;whiteSpace=wrap;html=1;" vertex="1" parent="1">
          <mxGeometry x="1370" y="660" width="80" height="40" as="geometry" />
        </mxCell>
        <mxCell id="zJNFZbpcUzYXw6sJoN---66" value="31.5ms" style="text;html=1;align=center;verticalAlign=middle;whiteSpace=wrap;rounded=0;fontColor=#FF3333;" vertex="1" parent="1">
          <mxGeometry x="375" y="330" width="60" height="30" as="geometry" />
        </mxCell>
        <mxCell id="zJNFZbpcUzYXw6sJoN---67" value="2.72ms" style="text;html=1;align=center;verticalAlign=middle;whiteSpace=wrap;rounded=0;fontColor=#FF3333;" vertex="1" parent="1">
          <mxGeometry x="514" y="330" width="60" height="30" as="geometry" />
        </mxCell>
        <mxCell id="zJNFZbpcUzYXw6sJoN---68" value="288.28ms" style="text;html=1;align=center;verticalAlign=middle;whiteSpace=wrap;rounded=0;fontColor=#FF3333;" vertex="1" parent="1">
          <mxGeometry x="618" y="330" width="60" height="30" as="geometry" />
        </mxCell>
        <mxCell id="zJNFZbpcUzYXw6sJoN---69" value="262.38ms" style="text;html=1;align=center;verticalAlign=middle;whiteSpace=wrap;rounded=0;fontColor=#FF3333;" vertex="1" parent="1">
          <mxGeometry x="710" y="330" width="60" height="30" as="geometry" />
        </mxCell>
        <mxCell id="zJNFZbpcUzYXw6sJoN---70" value="2.39ms" style="text;html=1;align=center;verticalAlign=middle;whiteSpace=wrap;rounded=0;fontColor=#FF3333;" vertex="1" parent="1">
          <mxGeometry x="840" y="330" width="60" height="30" as="geometry" />
        </mxCell>
        <mxCell id="zJNFZbpcUzYXw6sJoN---71" value="0.29ms" style="text;html=1;align=center;verticalAlign=middle;whiteSpace=wrap;rounded=0;fontColor=#FF3333;" vertex="1" parent="1">
          <mxGeometry x="920" y="330" width="60" height="30" as="geometry" />
        </mxCell>
        <mxCell id="zJNFZbpcUzYXw6sJoN---72" value="454ms" style="text;html=1;strokeColor=none;fillColor=none;align=center;verticalAlign=middle;whiteSpace=wrap;rounded=0;fontColor=#FF3333;" vertex="1" parent="1">
          <mxGeometry x="1050" y="450" width="60" height="30" as="geometry" />
        </mxCell>
        <mxCell id="zJNFZbpcUzYXw6sJoN---73" value="381ms" style="text;html=1;strokeColor=none;fillColor=none;align=center;verticalAlign=middle;whiteSpace=wrap;rounded=0;fontColor=#FF3333;" vertex="1" parent="1">
          <mxGeometry x="1050" y="540" width="60" height="30" as="geometry" />
        </mxCell>
        <mxCell id="zJNFZbpcUzYXw6sJoN---74" value="2.55 s" style="text;html=1;align=center;verticalAlign=middle;whiteSpace=wrap;rounded=0;fontColor=#FF3333;" vertex="1" parent="1">
          <mxGeometry x="1161" y="330" width="60" height="30" as="geometry" />
        </mxCell>
        <mxCell id="zJNFZbpcUzYXw6sJoN---76" value="0.81ms" style="text;html=1;align=center;verticalAlign=middle;whiteSpace=wrap;rounded=0;fontColor=#FF3333;" vertex="1" parent="1">
          <mxGeometry x="250" y="330" width="60" height="30" as="geometry" />
        </mxCell>
        <mxCell id="zJNFZbpcUzYXw6sJoN---77" value="①" style="text;strokeColor=none;fillColor=none;html=1;fontSize=24;fontStyle=1;verticalAlign=middle;align=center;" vertex="1" parent="1">
          <mxGeometry x="1040" y="220" width="100" height="40" as="geometry" />
        </mxCell>
        <mxCell id="zJNFZbpcUzYXw6sJoN---78" value="①数据重新独立进行，不阻塞保存进度完成" style="text;strokeColor=none;fillColor=none;html=1;fontSize=24;fontStyle=1;verticalAlign=middle;align=center;" vertex="1" parent="1">
          <mxGeometry x="190" y="730" width="490" height="40" as="geometry" />
        </mxCell>
        <mxCell id="zJNFZbpcUzYXw6sJoN---79" value="② 保存的两个接口合二为一，减少网络消耗" style="text;strokeColor=none;fillColor=none;html=1;fontSize=24;fontStyle=1;verticalAlign=middle;align=center;" vertex="1" parent="1">
          <mxGeometry x="200" y="780" width="490" height="40" as="geometry" />
        </mxCell>
        <mxCell id="zJNFZbpcUzYXw6sJoN---80" value="②" style="text;strokeColor=none;fillColor=none;html=1;fontSize=24;fontStyle=1;verticalAlign=middle;align=center;" vertex="1" parent="1">
          <mxGeometry x="630" y="450" width="100" height="40" as="geometry" />
        </mxCell>
      </root>
    </mxGraphModel>
  </diagram>
</mxfile>
